<svg width="86" height="95" viewBox="0 0 86 95" fill="none" xmlns="http://www.w3.org/2000/svg">
<circle cx="42.9998" cy="47.0133" r="14.3333" fill="#FFCC00"/>
<path d="M78.0867 49.2983C76.3543 48.3555 74.5043 47.6472 72.5853 47.1921C74.5043 46.737 76.3543 46.0287 78.0867 45.0859C79.8759 44.053 81.4441 42.6779 82.7018 41.0389C83.9596 39.3999 84.8822 37.5293 85.417 35.5338C85.9517 33.5382 86.0882 31.4569 85.8187 29.4086C85.5491 27.3604 84.8787 25.3853 83.8458 23.5961C82.813 21.8069 81.4378 20.2386 79.7988 18.9809C78.1598 17.7231 76.2892 16.8005 74.2937 16.2658C72.2981 15.731 70.2168 15.5945 68.1686 15.864C66.1203 16.1336 64.1452 16.804 62.356 17.8369C60.6749 18.8692 59.1367 20.118 57.7809 21.5511C58.3447 19.6602 58.6562 17.7031 58.7073 15.7307C58.7073 11.5587 57.05 7.55749 54.0999 4.60742C51.1498 1.65734 47.1486 0 42.9766 0C38.8046 0 34.8034 1.65734 31.8533 4.60742C28.9032 7.55749 27.2459 11.5587 27.2459 15.7307C27.297 17.7031 27.6085 19.6602 28.1723 21.5511C26.8165 20.118 25.2784 18.8692 23.5973 17.8369C19.9838 15.7508 15.6897 15.1857 11.6595 16.2658C7.62941 17.3458 4.19339 19.9826 2.10737 23.5961C0.0213533 27.2095 -0.543792 31.5036 0.536265 35.5338C1.61632 39.5639 4.25311 42.9999 7.86656 45.0859C9.5989 46.0287 11.4489 46.737 13.3679 47.1921C11.4489 47.6472 9.5989 48.3555 7.86656 49.2983C4.25311 51.3843 1.61632 54.8203 0.536265 58.8504C-0.543792 62.8806 0.0213533 67.1747 2.10737 70.7882C4.19339 74.4016 7.62941 77.0384 11.6595 78.1184C15.6897 79.1985 19.9838 78.6333 23.5973 76.5473C25.2784 75.515 26.8165 74.2662 28.1723 72.8331C27.6085 74.724 27.297 76.6811 27.2459 78.6535C27.2459 82.8255 28.9032 86.8267 31.8533 89.7768C34.8034 92.7269 38.8046 94.3842 42.9766 94.3842C47.1486 94.3842 51.1498 92.7269 54.0999 89.7768C57.05 86.8267 58.7073 82.8255 58.7073 78.6535C58.6562 76.6811 58.3447 74.724 57.7809 72.8331C59.1367 74.2662 60.6749 75.515 62.356 76.5473C64.7454 77.9335 67.4589 78.6631 70.2213 78.6622C71.6041 78.6597 72.9806 78.4761 74.3157 78.116C77.3268 77.3145 80.0321 75.6368 82.0884 73.2956C84.1447 70.9544 85.4594 68.0552 85.8657 64.9658C86.272 61.8764 85.7516 58.7359 84.3706 55.9427C82.9895 53.1494 80.81 50.8293 78.1085 49.2764L78.0867 49.2983ZM42.9766 59.4271C40.5568 59.4271 38.1912 58.7095 36.1792 57.3651C34.1672 56.0207 32.599 54.1099 31.6729 51.8742C30.7469 49.6386 30.5046 47.1785 30.9767 44.8052C31.4488 42.4318 32.6141 40.2518 34.3252 38.5407C36.0363 36.8296 38.2163 35.6643 40.5897 35.1922C42.963 34.7201 45.4231 34.9624 47.6587 35.8884C49.8944 36.8145 51.8052 38.3827 53.1496 40.3947C54.494 42.4067 55.2116 44.7722 55.2116 47.1921C55.2116 50.437 53.9226 53.549 51.6281 55.8435C49.3335 58.1381 46.2215 59.4271 42.9766 59.4271Z" fill="#5856D6"/>
<path d="M78.0867 49.2983C76.3543 48.3555 74.5043 47.6472 72.5853 47.1921C74.5043 46.737 76.3543 46.0287 78.0867 45.0859C79.8759 44.053 81.4441 42.6779 82.7018 41.0389C83.9596 39.3999 84.8822 37.5293 85.417 35.5338C85.9517 33.5382 86.0882 31.4569 85.8187 29.4086C85.5491 27.3604 84.8787 25.3852 83.8458 23.5961C82.813 21.8069 81.4378 20.2386 79.7988 18.9809C78.1598 17.7231 76.2892 16.8005 74.2937 16.2658C72.2981 15.731 70.2168 15.5945 68.1686 15.864C66.1203 16.1336 64.1452 16.804 62.356 17.8369C60.6749 18.8692 59.1367 20.118 57.7809 21.5511C58.3447 19.6602 58.6562 17.7031 58.7073 15.7307C58.7073 11.5587 57.05 7.55749 54.0999 4.60742C51.1498 1.65734 47.1486 0 42.9766 0C38.8046 0 34.8034 1.65734 31.8533 4.60742C28.9032 7.55749 27.2459 11.5587 27.2459 15.7307C27.297 17.7031 27.6085 19.6602 28.1723 21.5511C26.8165 20.118 25.2784 18.8692 23.5973 17.8369C19.9838 15.7508 15.6897 15.1857 11.6595 16.2658C7.62942 17.3458 4.19339 19.9826 2.10737 23.5961C0.0213532 27.2095 -0.543792 31.5036 0.536265 35.5338C1.61632 39.5639 4.25311 42.9999 7.86656 45.0859C9.5989 46.0287 11.4489 46.737 13.3679 47.1921C11.4489 47.6472 9.5989 48.3555 7.86656 49.2983C4.25311 51.3843 1.61632 54.8203 0.536265 58.8504C-0.543792 62.8806 0.0213532 67.1747 2.10737 70.7881C4.19339 74.4016 7.62942 77.0384 11.6595 78.1184C15.6897 79.1985 19.9838 78.6334 23.5973 76.5473C25.2784 75.515 26.8165 74.2662 28.1723 72.8331C27.6085 74.724 27.297 76.6811 27.2459 78.6535C27.2459 82.8255 28.9032 86.8267 31.8533 89.7768C34.8034 92.7269 38.8046 94.3842 42.9766 94.3842C47.1486 94.3842 51.1498 92.7269 54.0999 89.7768C57.05 86.8267 58.7073 82.8255 58.7073 78.6535C58.6562 76.6811 58.3447 74.724 57.7809 72.8331C59.1367 74.2662 60.6749 75.515 62.356 76.5473C64.7454 77.9335 67.4589 78.6631 70.2213 78.6622C71.6041 78.6597 72.9806 78.4761 74.3157 78.116C77.3268 77.3145 80.0321 75.6368 82.0884 73.2956C84.1447 70.9544 85.4594 68.0552 85.8657 64.9658C86.272 61.8764 85.7516 58.7359 84.3706 55.9427C82.9895 53.1494 80.81 50.8293 78.1085 49.2764L78.0867 49.2983ZM64.1038 20.865C66.9142 19.2426 70.2539 18.803 73.3884 19.6429C76.5228 20.4829 79.1952 22.5336 80.8177 25.3439C82.4401 28.1542 82.8798 31.494 82.0398 34.6284C81.1999 37.7629 79.1491 40.4353 76.3388 42.0578C73.3019 43.8056 67.6782 44.968 59.9789 45.4399L58.5981 45.3656C58.3483 43.2385 57.6668 41.1849 56.5953 39.3305C55.5238 37.4761 54.085 35.86 52.367 34.5813C52.5811 34.1444 52.8039 33.7511 52.9962 33.3403C57.2522 26.9126 61.0669 22.6216 64.1038 20.865ZM42.9766 59.4271C40.5568 59.4271 38.1912 58.7095 36.1792 57.3651C34.1672 56.0207 32.599 54.1099 31.6729 51.8742C30.7469 49.6386 30.5046 47.1785 30.9767 44.8052C31.4488 42.4318 32.6141 40.2518 34.3252 38.5407C36.0363 36.8296 38.2163 35.6643 40.5897 35.1922C42.963 34.7201 45.4231 34.9624 47.6587 35.8884C49.8944 36.8145 51.8052 38.3827 53.1496 40.3947C54.494 42.4067 55.2116 44.7722 55.2116 47.1921C55.2116 50.437 53.9226 53.549 51.6281 55.8435C49.3335 58.1381 46.2215 59.4271 42.9766 59.4271ZM42.9766 3.49571C46.2215 3.49571 49.3335 4.78475 51.6281 7.07926C53.9226 9.37376 55.2116 12.4858 55.2116 15.7307C55.2116 19.2264 53.4026 24.6885 49.968 31.5925C49.7146 31.9726 49.4655 32.3572 49.2121 32.7504C47.2448 31.9001 45.1242 31.4614 42.981 31.4614C40.8377 31.4614 38.7172 31.9001 36.7499 32.7504C36.4964 32.3572 36.2474 31.9726 35.9939 31.5925C32.5506 24.6885 30.7416 19.2264 30.7416 15.7307C30.7416 12.4858 32.0307 9.37376 34.3252 7.07926C36.6197 4.78475 39.7317 3.49571 42.9766 3.49571ZM9.61441 42.0578C6.80408 40.4353 4.75337 37.7629 3.91342 34.6284C3.07346 31.494 3.51307 28.1542 5.13553 25.3439C6.75799 22.5336 9.4304 20.4829 12.5649 19.6429C15.6993 18.803 19.0391 19.2426 21.8494 20.865C24.8863 22.6129 28.701 26.9126 32.957 33.3403C33.1624 33.7511 33.394 34.1618 33.5863 34.5813C31.8682 35.86 30.4294 37.4761 29.3579 39.3305C28.2865 41.1849 27.605 43.2385 27.3551 45.3656L25.9743 45.4399C18.275 44.968 12.6513 43.81 9.61441 42.0578ZM21.8494 73.5192C20.4579 74.3225 18.9217 74.8439 17.3287 75.0536C15.7356 75.2633 14.1169 75.1572 12.5649 74.7413C11.0128 74.3254 9.55792 73.6079 8.2832 72.6297C7.00847 71.6515 5.93889 70.4318 5.13553 69.0403C4.33217 67.6488 3.81076 66.1126 3.60107 64.5196C3.39138 62.9265 3.49751 61.3078 3.91342 59.7558C4.32932 58.2037 5.04684 56.7488 6.02502 55.4741C7.0032 54.1994 8.22288 53.1298 9.61441 52.3264C12.6732 50.5786 18.275 49.4162 25.9743 48.9443L27.3551 49.0186C27.605 51.1457 28.2865 53.1993 29.3579 55.0537C30.4294 56.9081 31.8682 58.5242 33.5863 59.8029C33.3721 60.2398 33.1493 60.6331 32.957 61.0439C28.701 67.4716 24.8863 71.7626 21.8494 73.5192ZM42.9766 90.8885C39.7317 90.8885 36.6197 89.5994 34.3252 87.3049C32.0307 85.0104 30.7416 81.8984 30.7416 78.6535C30.7416 75.1578 32.5506 69.6957 35.9852 62.7917C36.2386 62.4115 36.4877 62.027 36.7411 61.6338C38.7084 62.4841 40.829 62.9228 42.9722 62.9228C45.1155 62.9228 47.236 62.4841 49.2033 61.6338C49.4568 62.027 49.7058 62.4115 49.9593 62.7917C53.3982 69.6957 55.2029 75.1447 55.2029 78.6535C55.2029 81.8969 53.915 85.0076 51.6224 87.3018C49.3298 89.5961 46.22 90.8862 42.9766 90.8885ZM80.8177 69.0403C80.0144 70.4319 78.9448 71.6516 77.6701 72.6298C76.3954 73.608 74.9405 74.3256 73.3884 74.7415C71.8364 75.1574 70.2176 75.2635 68.6245 75.0538C67.0315 74.8441 65.4953 74.3226 64.1038 73.5192C61.0669 71.7713 57.2522 67.4716 52.9962 61.0439C52.7908 60.6331 52.5592 60.2224 52.367 59.8029C54.085 58.5242 55.5238 56.9081 56.5953 55.0537C57.6668 53.1993 58.3483 51.1457 58.5981 49.0186L59.9789 48.9443C67.6782 49.4162 73.3019 50.5742 76.3388 52.3264C77.7304 53.1297 78.9501 54.1993 79.9283 55.474C80.9065 56.7487 81.6241 58.2037 82.04 59.7557C82.4559 61.3077 82.562 62.9265 82.3523 64.5196C82.1426 66.1126 81.6211 67.6488 80.8177 69.0403Z" fill="#26255C"/>
</svg>
