<svg width="200" height="200" viewBox="0 0 200 200" fill="none" xmlns="http://www.w3.org/2000/svg">
    <path d="M173.667 38.4166C169.411 34.1583 164.357 30.7803 158.795 28.4757C153.233 26.171 147.271 24.9847 141.25 24.9847C135.23 24.9847 129.268 26.171 123.706 28.4757C118.144 30.7803 113.09 34.1583 108.834 38.4166L100 47.25L91.167 38.4166C82.5696 29.8192 70.9089 24.9892 58.7503 24.9892C46.5917 24.9892 34.9311 29.8192 26.3337 38.4166C17.7362 47.0141 12.9063 58.6747 12.9062 70.8333C12.9062 82.9919 17.7362 94.6525 26.3337 103.25L35.167 112.083L100 176.917L164.834 112.083L173.667 103.25C177.925 98.9937 181.303 93.9401 183.608 88.3779C185.913 82.8158 187.099 76.854 187.099 70.8333C187.099 64.8126 185.913 58.8508 183.608 53.2887C181.303 47.7265 177.925 42.6729 173.667 38.4166Z" fill="#FF3B30" stroke="#FF3B30" stroke-width="2" stroke-linecap="round" stroke-linejoin="round"/>
</svg>
